<mxfile host="app.diagrams.net" modified="2024-06-11T12:40:38.244Z" agent="Mozilla/5.0 (Windows NT 10.0; Win64; x64) AppleWebKit/537.36 (KHTML, like Gecko) Chrome/125.0.0.0 Safari/537.36" etag="n-d_tR8yZgFtL1Gfna4y" version="24.5.2" type="device">
  <diagram name="Page-1" id="f1b7ffb7-ca1e-a977-7cf5-a751b3c06c05">
    <mxGraphModel dx="1290" dy="557" grid="1" gridSize="10" guides="1" tooltips="1" connect="1" arrows="1" fold="1" page="1" pageScale="1" pageWidth="826" pageHeight="1169" background="none" math="0" shadow="0">
      <root>
        <mxCell id="0" />
        <mxCell id="1" parent="0" />
        <mxCell id="ylPcNcEXOAvtPoZ6D2o4-75" value="" style="swimlane;startSize=0;" parent="1" vertex="1">
          <mxGeometry width="830" height="680" as="geometry" />
        </mxCell>
        <mxCell id="ylPcNcEXOAvtPoZ6D2o4-73" value="" style="line;strokeWidth=1" parent="ylPcNcEXOAvtPoZ6D2o4-75" vertex="1">
          <mxGeometry y="610" width="826" height="10" as="geometry" />
        </mxCell>
        <mxCell id="IT6R43uDP_cXyjZSx9Ry-31" value="" style="html=1;shadow=0;dashed=0;shape=mxgraph.bootstrap.rrect;rSize=5;strokeColor=none;html=1;whiteSpace=wrap;fillColor=#6C767D;fontColor=#ffffff;sketch=0;" vertex="1" parent="ylPcNcEXOAvtPoZ6D2o4-75">
          <mxGeometry x="10" y="150" width="150" height="430" as="geometry" />
        </mxCell>
        <mxCell id="IT6R43uDP_cXyjZSx9Ry-32" value="Dashboard" style="strokeColor=inherit;fillColor=inherit;gradientColor=inherit;fontColor=inherit;html=1;shadow=0;dashed=0;shape=mxgraph.bootstrap.topButton;rSize=5;perimeter=none;whiteSpace=wrap;resizeWidth=1;sketch=0;" vertex="1" parent="IT6R43uDP_cXyjZSx9Ry-31">
          <mxGeometry width="150" height="30" relative="1" as="geometry" />
        </mxCell>
        <mxCell id="IT6R43uDP_cXyjZSx9Ry-33" value="Invoices" style="strokeColor=inherit;fillColor=inherit;gradientColor=inherit;fontColor=inherit;html=1;shadow=0;dashed=0;perimeter=none;whiteSpace=wrap;resizeWidth=1;sketch=0;" vertex="1" parent="IT6R43uDP_cXyjZSx9Ry-31">
          <mxGeometry width="150" height="30" relative="1" as="geometry">
            <mxPoint y="30" as="offset" />
          </mxGeometry>
        </mxCell>
        <mxCell id="IT6R43uDP_cXyjZSx9Ry-34" value="Payments" style="strokeColor=inherit;fillColor=inherit;gradientColor=inherit;fontColor=inherit;html=1;shadow=0;dashed=0;perimeter=none;whiteSpace=wrap;resizeWidth=1;sketch=0;" vertex="1" parent="IT6R43uDP_cXyjZSx9Ry-31">
          <mxGeometry width="150" height="30" relative="1" as="geometry">
            <mxPoint y="60" as="offset" />
          </mxGeometry>
        </mxCell>
        <mxCell id="IT6R43uDP_cXyjZSx9Ry-35" value="Profile" style="strokeColor=inherit;fillColor=inherit;gradientColor=inherit;fontColor=inherit;html=1;shadow=0;dashed=0;perimeter=none;whiteSpace=wrap;resizeWidth=1;sketch=0;" vertex="1" parent="IT6R43uDP_cXyjZSx9Ry-31">
          <mxGeometry width="150" height="30" relative="1" as="geometry">
            <mxPoint y="90" as="offset" />
          </mxGeometry>
        </mxCell>
        <mxCell id="IT6R43uDP_cXyjZSx9Ry-36" value="" style="strokeColor=inherit;fillColor=inherit;gradientColor=inherit;fontColor=inherit;html=1;shadow=0;dashed=0;perimeter=none;whiteSpace=wrap;resizeWidth=1;sketch=0;" vertex="1" parent="IT6R43uDP_cXyjZSx9Ry-31">
          <mxGeometry width="150" height="30" relative="1" as="geometry">
            <mxPoint y="120" as="offset" />
          </mxGeometry>
        </mxCell>
        <mxCell id="IT6R43uDP_cXyjZSx9Ry-37" value="Log Out" style="strokeColor=inherit;fillColor=inherit;gradientColor=inherit;fontColor=inherit;html=1;shadow=0;dashed=0;shape=mxgraph.bootstrap.bottomButton;rSize=5;perimeter=none;whiteSpace=wrap;resizeWidth=1;resizeHeight=0;sketch=0;" vertex="1" parent="IT6R43uDP_cXyjZSx9Ry-31">
          <mxGeometry y="1" width="150" height="30" relative="1" as="geometry">
            <mxPoint y="-280" as="offset" />
          </mxGeometry>
        </mxCell>
        <mxCell id="13" value="" style="verticalLabelPosition=bottom;verticalAlign=top;strokeWidth=1;shape=mxgraph.mockup.graphics.iconGrid;strokeColor=#CCCCCC;gridSize=1,1;" parent="ylPcNcEXOAvtPoZ6D2o4-75" vertex="1">
          <mxGeometry x="180" y="150" width="280" height="190" as="geometry" />
        </mxCell>
        <mxCell id="ylPcNcEXOAvtPoZ6D2o4-65" value="" style="verticalLabelPosition=bottom;verticalAlign=top;strokeWidth=1;shape=mxgraph.mockup.graphics.iconGrid;strokeColor=#CCCCCC;gridSize=1,1;" parent="ylPcNcEXOAvtPoZ6D2o4-75" vertex="1">
          <mxGeometry x="470" y="150" width="290" height="190" as="geometry" />
        </mxCell>
        <mxCell id="ylPcNcEXOAvtPoZ6D2o4-70" value="Dashboard" style="text;spacingTop=-5;fontSize=18;fontStyle=0" parent="ylPcNcEXOAvtPoZ6D2o4-75" vertex="1">
          <mxGeometry x="20" y="110" width="230" height="20" as="geometry" />
        </mxCell>
        <mxCell id="IT6R43uDP_cXyjZSx9Ry-38" value="My Invoices" style="shape=table;startSize=30;container=1;collapsible=0;childLayout=tableLayout;strokeColor=default;fontSize=16;" vertex="1" parent="ylPcNcEXOAvtPoZ6D2o4-75">
          <mxGeometry x="180" y="400" width="580" height="150" as="geometry" />
        </mxCell>
        <mxCell id="IT6R43uDP_cXyjZSx9Ry-39" value="" style="shape=tableRow;horizontal=0;startSize=0;swimlaneHead=0;swimlaneBody=0;strokeColor=inherit;top=0;left=0;bottom=0;right=0;collapsible=0;dropTarget=0;fillColor=none;points=[[0,0.5],[1,0.5]];portConstraint=eastwest;fontSize=16;" vertex="1" parent="IT6R43uDP_cXyjZSx9Ry-38">
          <mxGeometry y="30" width="580" height="40" as="geometry" />
        </mxCell>
        <mxCell id="IT6R43uDP_cXyjZSx9Ry-40" value="Invoice Date" style="shape=partialRectangle;html=1;whiteSpace=wrap;connectable=0;strokeColor=inherit;overflow=hidden;fillColor=none;top=0;left=0;bottom=0;right=0;pointerEvents=1;fontSize=16;" vertex="1" parent="IT6R43uDP_cXyjZSx9Ry-39">
          <mxGeometry width="64" height="40" as="geometry">
            <mxRectangle width="64" height="40" as="alternateBounds" />
          </mxGeometry>
        </mxCell>
        <mxCell id="IT6R43uDP_cXyjZSx9Ry-41" value="Due Date" style="shape=partialRectangle;html=1;whiteSpace=wrap;connectable=0;strokeColor=inherit;overflow=hidden;fillColor=none;top=0;left=0;bottom=0;right=0;pointerEvents=1;fontSize=16;" vertex="1" parent="IT6R43uDP_cXyjZSx9Ry-39">
          <mxGeometry x="64" width="126" height="40" as="geometry">
            <mxRectangle width="126" height="40" as="alternateBounds" />
          </mxGeometry>
        </mxCell>
        <mxCell id="IT6R43uDP_cXyjZSx9Ry-42" value="Subtotal" style="shape=partialRectangle;html=1;whiteSpace=wrap;connectable=0;strokeColor=inherit;overflow=hidden;fillColor=none;top=0;left=0;bottom=0;right=0;pointerEvents=1;fontSize=16;" vertex="1" parent="IT6R43uDP_cXyjZSx9Ry-39">
          <mxGeometry x="190" width="110" height="40" as="geometry">
            <mxRectangle width="110" height="40" as="alternateBounds" />
          </mxGeometry>
        </mxCell>
        <mxCell id="IT6R43uDP_cXyjZSx9Ry-51" value="Tax" style="shape=partialRectangle;html=1;whiteSpace=wrap;connectable=0;strokeColor=inherit;overflow=hidden;fillColor=none;top=0;left=0;bottom=0;right=0;pointerEvents=1;fontSize=16;" vertex="1" parent="IT6R43uDP_cXyjZSx9Ry-39">
          <mxGeometry x="300" width="70" height="40" as="geometry">
            <mxRectangle width="70" height="40" as="alternateBounds" />
          </mxGeometry>
        </mxCell>
        <mxCell id="IT6R43uDP_cXyjZSx9Ry-54" value="TotalAmount" style="shape=partialRectangle;html=1;whiteSpace=wrap;connectable=0;strokeColor=inherit;overflow=hidden;fillColor=none;top=0;left=0;bottom=0;right=0;pointerEvents=1;fontSize=16;" vertex="1" parent="IT6R43uDP_cXyjZSx9Ry-39">
          <mxGeometry x="370" width="100" height="40" as="geometry">
            <mxRectangle width="100" height="40" as="alternateBounds" />
          </mxGeometry>
        </mxCell>
        <mxCell id="IT6R43uDP_cXyjZSx9Ry-57" value="Status" style="shape=partialRectangle;html=1;whiteSpace=wrap;connectable=0;strokeColor=inherit;overflow=hidden;fillColor=none;top=0;left=0;bottom=0;right=0;pointerEvents=1;fontSize=16;" vertex="1" parent="IT6R43uDP_cXyjZSx9Ry-39">
          <mxGeometry x="470" width="110" height="40" as="geometry">
            <mxRectangle width="110" height="40" as="alternateBounds" />
          </mxGeometry>
        </mxCell>
        <mxCell id="IT6R43uDP_cXyjZSx9Ry-43" value="" style="shape=tableRow;horizontal=0;startSize=0;swimlaneHead=0;swimlaneBody=0;strokeColor=inherit;top=0;left=0;bottom=0;right=0;collapsible=0;dropTarget=0;fillColor=none;points=[[0,0.5],[1,0.5]];portConstraint=eastwest;fontSize=16;" vertex="1" parent="IT6R43uDP_cXyjZSx9Ry-38">
          <mxGeometry y="70" width="580" height="40" as="geometry" />
        </mxCell>
        <mxCell id="IT6R43uDP_cXyjZSx9Ry-44" value="" style="shape=partialRectangle;html=1;whiteSpace=wrap;connectable=0;strokeColor=inherit;overflow=hidden;fillColor=none;top=0;left=0;bottom=0;right=0;pointerEvents=1;fontSize=16;" vertex="1" parent="IT6R43uDP_cXyjZSx9Ry-43">
          <mxGeometry width="64" height="40" as="geometry">
            <mxRectangle width="64" height="40" as="alternateBounds" />
          </mxGeometry>
        </mxCell>
        <mxCell id="IT6R43uDP_cXyjZSx9Ry-45" value="" style="shape=partialRectangle;html=1;whiteSpace=wrap;connectable=0;strokeColor=inherit;overflow=hidden;fillColor=none;top=0;left=0;bottom=0;right=0;pointerEvents=1;fontSize=16;" vertex="1" parent="IT6R43uDP_cXyjZSx9Ry-43">
          <mxGeometry x="64" width="126" height="40" as="geometry">
            <mxRectangle width="126" height="40" as="alternateBounds" />
          </mxGeometry>
        </mxCell>
        <mxCell id="IT6R43uDP_cXyjZSx9Ry-46" value="" style="shape=partialRectangle;html=1;whiteSpace=wrap;connectable=0;strokeColor=inherit;overflow=hidden;fillColor=none;top=0;left=0;bottom=0;right=0;pointerEvents=1;fontSize=16;" vertex="1" parent="IT6R43uDP_cXyjZSx9Ry-43">
          <mxGeometry x="190" width="110" height="40" as="geometry">
            <mxRectangle width="110" height="40" as="alternateBounds" />
          </mxGeometry>
        </mxCell>
        <mxCell id="IT6R43uDP_cXyjZSx9Ry-52" style="shape=partialRectangle;html=1;whiteSpace=wrap;connectable=0;strokeColor=inherit;overflow=hidden;fillColor=none;top=0;left=0;bottom=0;right=0;pointerEvents=1;fontSize=16;" vertex="1" parent="IT6R43uDP_cXyjZSx9Ry-43">
          <mxGeometry x="300" width="70" height="40" as="geometry">
            <mxRectangle width="70" height="40" as="alternateBounds" />
          </mxGeometry>
        </mxCell>
        <mxCell id="IT6R43uDP_cXyjZSx9Ry-55" style="shape=partialRectangle;html=1;whiteSpace=wrap;connectable=0;strokeColor=inherit;overflow=hidden;fillColor=none;top=0;left=0;bottom=0;right=0;pointerEvents=1;fontSize=16;" vertex="1" parent="IT6R43uDP_cXyjZSx9Ry-43">
          <mxGeometry x="370" width="100" height="40" as="geometry">
            <mxRectangle width="100" height="40" as="alternateBounds" />
          </mxGeometry>
        </mxCell>
        <mxCell id="IT6R43uDP_cXyjZSx9Ry-58" style="shape=partialRectangle;html=1;whiteSpace=wrap;connectable=0;strokeColor=inherit;overflow=hidden;fillColor=none;top=0;left=0;bottom=0;right=0;pointerEvents=1;fontSize=16;" vertex="1" parent="IT6R43uDP_cXyjZSx9Ry-43">
          <mxGeometry x="470" width="110" height="40" as="geometry">
            <mxRectangle width="110" height="40" as="alternateBounds" />
          </mxGeometry>
        </mxCell>
        <mxCell id="IT6R43uDP_cXyjZSx9Ry-47" value="" style="shape=tableRow;horizontal=0;startSize=0;swimlaneHead=0;swimlaneBody=0;strokeColor=inherit;top=0;left=0;bottom=0;right=0;collapsible=0;dropTarget=0;fillColor=none;points=[[0,0.5],[1,0.5]];portConstraint=eastwest;fontSize=16;" vertex="1" parent="IT6R43uDP_cXyjZSx9Ry-38">
          <mxGeometry y="110" width="580" height="40" as="geometry" />
        </mxCell>
        <mxCell id="IT6R43uDP_cXyjZSx9Ry-48" value="" style="shape=partialRectangle;html=1;whiteSpace=wrap;connectable=0;strokeColor=inherit;overflow=hidden;fillColor=none;top=0;left=0;bottom=0;right=0;pointerEvents=1;fontSize=16;" vertex="1" parent="IT6R43uDP_cXyjZSx9Ry-47">
          <mxGeometry width="64" height="40" as="geometry">
            <mxRectangle width="64" height="40" as="alternateBounds" />
          </mxGeometry>
        </mxCell>
        <mxCell id="IT6R43uDP_cXyjZSx9Ry-49" value="" style="shape=partialRectangle;html=1;whiteSpace=wrap;connectable=0;strokeColor=inherit;overflow=hidden;fillColor=none;top=0;left=0;bottom=0;right=0;pointerEvents=1;fontSize=16;" vertex="1" parent="IT6R43uDP_cXyjZSx9Ry-47">
          <mxGeometry x="64" width="126" height="40" as="geometry">
            <mxRectangle width="126" height="40" as="alternateBounds" />
          </mxGeometry>
        </mxCell>
        <mxCell id="IT6R43uDP_cXyjZSx9Ry-50" value="" style="shape=partialRectangle;html=1;whiteSpace=wrap;connectable=0;strokeColor=inherit;overflow=hidden;fillColor=none;top=0;left=0;bottom=0;right=0;pointerEvents=1;fontSize=16;" vertex="1" parent="IT6R43uDP_cXyjZSx9Ry-47">
          <mxGeometry x="190" width="110" height="40" as="geometry">
            <mxRectangle width="110" height="40" as="alternateBounds" />
          </mxGeometry>
        </mxCell>
        <mxCell id="IT6R43uDP_cXyjZSx9Ry-53" style="shape=partialRectangle;html=1;whiteSpace=wrap;connectable=0;strokeColor=inherit;overflow=hidden;fillColor=none;top=0;left=0;bottom=0;right=0;pointerEvents=1;fontSize=16;" vertex="1" parent="IT6R43uDP_cXyjZSx9Ry-47">
          <mxGeometry x="300" width="70" height="40" as="geometry">
            <mxRectangle width="70" height="40" as="alternateBounds" />
          </mxGeometry>
        </mxCell>
        <mxCell id="IT6R43uDP_cXyjZSx9Ry-56" style="shape=partialRectangle;html=1;whiteSpace=wrap;connectable=0;strokeColor=inherit;overflow=hidden;fillColor=none;top=0;left=0;bottom=0;right=0;pointerEvents=1;fontSize=16;" vertex="1" parent="IT6R43uDP_cXyjZSx9Ry-47">
          <mxGeometry x="370" width="100" height="40" as="geometry">
            <mxRectangle width="100" height="40" as="alternateBounds" />
          </mxGeometry>
        </mxCell>
        <mxCell id="IT6R43uDP_cXyjZSx9Ry-59" style="shape=partialRectangle;html=1;whiteSpace=wrap;connectable=0;strokeColor=inherit;overflow=hidden;fillColor=none;top=0;left=0;bottom=0;right=0;pointerEvents=1;fontSize=16;" vertex="1" parent="IT6R43uDP_cXyjZSx9Ry-47">
          <mxGeometry x="470" width="110" height="40" as="geometry">
            <mxRectangle width="110" height="40" as="alternateBounds" />
          </mxGeometry>
        </mxCell>
        <mxCell id="IT6R43uDP_cXyjZSx9Ry-60" value="2024 SISONKE Invoicing System" style="text;html=1;align=center;verticalAlign=middle;resizable=0;points=[];autosize=1;strokeColor=none;fillColor=none;" vertex="1" parent="ylPcNcEXOAvtPoZ6D2o4-75">
          <mxGeometry x="330" y="630" width="200" height="30" as="geometry" />
        </mxCell>
        <mxCell id="IT6R43uDP_cXyjZSx9Ry-79" value="" style="rounded=0;whiteSpace=wrap;html=1;" vertex="1" parent="ylPcNcEXOAvtPoZ6D2o4-75">
          <mxGeometry x="180" y="547" width="580" height="30" as="geometry" />
        </mxCell>
        <mxCell id="IT6R43uDP_cXyjZSx9Ry-80" value="View More" style="fillColor=none;strokeColor=none;html=1;fontColor=#0057D8;align=center;verticalAlign=middle;fontStyle=4;fontSize=12" vertex="1" parent="ylPcNcEXOAvtPoZ6D2o4-75">
          <mxGeometry x="447" y="547" width="86" height="33" as="geometry" />
        </mxCell>
        <mxCell id="2" value="Customer" style="text;spacingTop=-5;fontSize=18;fontStyle=0" parent="1" vertex="1">
          <mxGeometry x="70" y="30" width="230" height="20" as="geometry" />
        </mxCell>
        <mxCell id="3" value="" style="line;strokeWidth=1" parent="1" vertex="1">
          <mxGeometry x="20" y="60" width="780" height="10" as="geometry" />
        </mxCell>
        <mxCell id="4" value="" style="line;strokeWidth=1" parent="1" vertex="1">
          <mxGeometry x="20" y="90" width="780" height="10" as="geometry" />
        </mxCell>
        <mxCell id="5" value="Home" style="text;spacingTop=-5;" parent="1" vertex="1">
          <mxGeometry x="20" y="70.00000000000009" width="30" height="20" as="geometry" />
        </mxCell>
        <mxCell id="11" value="Account Details" style="text;spacingTop=-5;" parent="1" vertex="1">
          <mxGeometry x="710" y="70.00000000000013" width="30" height="20" as="geometry" />
        </mxCell>
        <mxCell id="20" value="" style="verticalLabelPosition=bottom;verticalAlign=top;strokeWidth=1;shape=mxgraph.mockup.graphics.iconGrid;strokeColor=#CCCCCC;gridSize=1,1;" parent="1" vertex="1">
          <mxGeometry x="20" y="15" width="40" height="40" as="geometry" />
        </mxCell>
        <mxCell id="21" value="&#xa;Logo" style="text;spacingTop=-5;align=center" parent="1" vertex="1">
          <mxGeometry x="20" y="20" width="40" height="40" as="geometry" />
        </mxCell>
      </root>
    </mxGraphModel>
  </diagram>
</mxfile>
